inDegrees=no
num_controls=7
num_derivatives=13
num_iterations=118
num_multipliers=7
num_parameters=0
num_slacks=7
num_states=26
objective=0.428738
objective_accelerations=0.053104
objective_balance=0.006912
objective_effort=0.032573
objective_height=0.335018
objective_ligament=0.001130
solver_duration=1517.747864
status=Solve_Succeeded
success=true
DataType=double
version=3
OpenSimVersion=4.5
endheader
time	/jointset/ground_pelvis/pelvis_tilt/value	/jointset/ground_pelvis/pelvis_tx/value	/jointset/ground_pelvis/pelvis_ty/value	/jointset/hip_l/hip_flexion_l/value	/jointset/hip_l/hip_adduction_l/value	/jointset/hip_l/hip_rotation_l/value	/jointset/back/lumbar_extension/value	/jointset/patellofemoral_l/patellar_flexion_l/value	/jointset/knee_l/knee_flexion_l/value	/jointset/knee_l/knee_adduction_l/value	/jointset/knee_l/knee_rotation_l/value	/jointset/ankle_l/ankle_angle_l/value	/jointset/subtalar_l/subtalar_angle_l/value	/jointset/ground_pelvis/pelvis_tilt/speed	/jointset/ground_pelvis/pelvis_tx/speed	/jointset/ground_pelvis/pelvis_ty/speed	/jointset/hip_l/hip_flexion_l/speed	/jointset/hip_l/hip_adduction_l/speed	/jointset/hip_l/hip_rotation_l/speed	/jointset/back/lumbar_extension/speed	/jointset/patellofemoral_l/patellar_flexion_l/speed	/jointset/knee_l/knee_flexion_l/speed	/jointset/knee_l/knee_adduction_l/speed	/jointset/knee_l/knee_rotation_l/speed	/jointset/ankle_l/ankle_angle_l/speed	/jointset/subtalar_l/subtalar_angle_l/speed	/forceset/tau_hip_flexion_l	/forceset/tau_hip_adduction_l	/forceset/tau_hip_rotation_l	/forceset/tau_knee_flexion_l	/forceset/tau_ankle_angle_l	/forceset/tau_subtalar_angle_l	/forceset/tau_lumbar_extension	lambda_cid13_p0	lambda_cid13_p1	lambda_cid13_p2	lambda_cid13_p3	lambda_cid13_p4	lambda_cid13_p5	lambda_cid14_p0	/jointset/ground_pelvis/pelvis_tilt/accel	/jointset/ground_pelvis/pelvis_tx/accel	/jointset/ground_pelvis/pelvis_ty/accel	/jointset/hip_l/hip_flexion_l/accel	/jointset/hip_l/hip_adduction_l/accel	/jointset/hip_l/hip_rotation_l/accel	/jointset/back/lumbar_extension/accel	/jointset/patellofemoral_l/patellar_flexion_l/accel	/jointset/knee_l/knee_flexion_l/accel	/jointset/knee_l/knee_adduction_l/accel	/jointset/knee_l/knee_rotation_l/accel	/jointset/ankle_l/ankle_angle_l/accel	/jointset/subtalar_l/subtalar_angle_l/accel	gamma_cid13_p0	gamma_cid13_p1	gamma_cid13_p2	gamma_cid13_p3	gamma_cid13_p4	gamma_cid13_p5	gamma_cid14_p0
1	-0.4570563275493612	-0.05835045792876384	0.5664348927177363	1.857862049811474	-0.2641960604577714	0.2515540935117926	-0.4363310404112459	1.49649111725044	1.496491117250781	-0.1741702567768783	0.1745318361428045	0.3161980264233172	0.06092071729817277	-0.009865922430673166	0.0001787149120721708	-0.003745554857278513	0.01742127841621085	0.001008707651866634	0.003211267300679576	5.407605409126799e-06	0.008282494837813107	0.008282494837813816	7.329580259407629e-05	3.064504526720388e-06	0.001127259964600223	0.001612893289611542	-0.3383895783936191	0.0008728561303452053	-0.008480919686388776	-0.3870077156663738	0.06362892395877	0.009193236613229449	0.3008282369281424	-26.62655840303764	2.80698854713199	-3.291461734134902	15.44467174723531	-736.728944259383	-55.48416735152936	-0.03806564204363769	0.9705861258950992	-0.02474059533641027	1.952817585829003	-6.011559584652165	-0.7130707599473727	-2.216513102868698	-0.009791304452345672	-5.79212793113566	-5.792127931136407	-0.09499915454926597	0.02057772131484645	-1.044206001268426	-1.217129177478913	4.807028741660995e-10	-7.441003717160699e-10	-8.053018087817357e-09	-2.062502471086746e-09	1.93243062353784e-09	-9.734045497767538e-09	1.480496719930494e-09
1.01	-0.4571067780945038	-0.05834993383176449	0.5664949848245308	1.857736199396851	-0.264220781750039	0.2514731207038045	-0.4363310125166734	1.49628462783005	1.496284627830304	-0.1741708537637799	0.1745318763180946	0.3161573285703658	0.06087725752639681	-0.0002179738623556798	-7.41450516584729e-05	0.01576156776559489	-0.04258954745649717	-0.005949228084950243	-0.01940253456366909	2.136755008885367e-06	-0.04957868195356808	-0.04957868195357099	-0.0001918152063529124	3.934467789257513e-06	-0.009273822072217648	-0.01030053176146693	-0.3384793685966613	0.0009294475143710283	-0.00850901866865177	-0.3867511049323867	0.06337867731247936	0.009249697430366932	0.3008858896963512	-26.69781000140884	2.787288242310665	-3.279577019489856	15.49526004206907	-736.6274968534834	-55.48894208222925	-0.03807969769024585	0.9628316503361333	-0.02559481393064329	1.949296262537321	-5.995571749965329	-0.686602240617316	-2.283326365771961	0.004699841610151155	-5.782856118373181	-5.782856118373189	0.007860243555892061	-0.01032629869442299	-1.039106690194692	-1.17780796540168	-6.625817210485054e-10	-1.627869789139471e-09	5.273864663809763e-08	6.483075536892978e-09	-1.022910742191143e-08	4.639566027460482e-08	-9.342840176842855e-09
1.02	-0.4570605626683559	-0.0583519455578103	0.5667500754899583	1.857010295191224	-0.2643149718516886	0.2511661073496618	-0.4363309583672192	1.495499577928699	1.495499577928866	-0.1741740763972462	0.1745318916065124	0.316012410419985	0.06071479174481419	0.009467271827402909	-0.0003284496969587647	0.03525415686929059	-0.1025894797846154	-0.0128850542245061	-0.04199684193017859	1.065858236757386e-05	-0.1074296013543037	-0.1074296013543037	-0.0004518335103673917	-1.912870003430512e-06	-0.01971679952128455	-0.02218830867172016	-0.3385691587997043	0.0009860388983969114	-0.008537117650915832	-0.3864944941983999	0.06312843066618881	0.009306158247504633	0.3009435424645596	-26.77583755724764	2.769628167633178	-3.268992996602035	15.59121728822378	-736.6163028055382	-55.43382351423712	-0.03808684468629113	0.9780455501833197	-0.0250295316503398	1.949910881993462	-6.009380875734196	-0.7086488404951676	-2.212614203300865	-0.007432768900556121	-5.790076453006542	-5.790076453005987	-0.09398061356276369	0.01923426110380052	-1.052585083718233	-1.211999549313863	-1.097991506736909e-09	-2.390957827367115e-09	1.137994229587704e-07	1.306666800116176e-08	-2.160663624411237e-08	1.036372157372651e-07	-2.0400320389778e-08
1.03	-0.4569173047030886	-0.05835647147866668	0.5671999127778795	1.855684696387655	-0.2644783382975677	0.2506333737437094	-0.4363308114489262	1.494136269993844	1.49413626999422	-0.1741798843114392	0.1745318525050745	0.3157627889666534	0.06043368196322205	0.01919064595349311	-0.0005734507630791593	0.05470029145318454	-0.1625034556708876	-0.01977695528360424	-0.06453625444538144	1.573411539697773e-05	-0.1652104861026762	-0.1652104861026705	-0.0007072672827882481	-3.656232427578041e-06	-0.03022073168536094	-0.03401815826860474	-0.3382216428893542	0.0010498387740759	-0.008632709284798612	-0.3860914941625683	0.0632064911470816	0.009423059844967618	0.300689726553248	-26.71264187346	2.69044233860612	-3.23655023664207	15.5214221969134	-736.1490929904894	-55.42611208577271	-0.03812070539871634	0.9704336621624997	-0.0237388715803232	1.94000669318022	-5.978381380030394	-0.6777948814091684	-2.272583811240377	0.004029070281727146	-5.76886319957445	-5.768863199573948	0.009032894861958244	-0.009582681092150101	-1.051278737592589	-1.166175094308559	-1.526178080083205e-09	-3.152814422949903e-09	1.748629453161245e-07	1.963024020478041e-08	-3.297616497219853e-08	1.608901166049283e-07	-3.146018982022501e-08
